<svg xmlns="http://www.w3.org/2000/svg" width="531.873" height="313.523" viewBox="0 0 531.873 313.523">
  <path id="TA_trim" data-name="TA trim" d="M104.911,311.654a10.677,10.677,0,0,0-2.835-.194c-3.028.258-5.992.773-8.955.838-2.512,0-2.964-2.062-3.286-4.123-.386-2.577-1.1-5.219-1.224-7.86a61.054,61.054,0,0,1,.58-8.375c.387-4.639.967-9.213,1.224-13.788.387-5.154.451-10.309.709-15.527.387-8.826.774-17.717,1.289-26.609.515-8.311,1.224-16.622,1.933-25,.58-6.571,1.1-13.208,2-19.779,1.1-8.375,2.513-16.751,3.8-25.126,1.1-7.474,2-15.012,3.286-22.485,1.417-8.5,3.35-16.88,4.9-25.32,1.031-5.734,1.8-11.533,2.771-17.267.709-4.059,1.482-8.182,2.255-12.241.064-.515.257-.966.322-1.482.387-5.154.387-4.961-4.767-3.8-7.86,1.675-15.913,2.964-23.838,4.7-6.25,1.289-12.434,3.029-18.748,4.381-3.866.837-7.86,1.224-11.726,2-3.737.774-7.538,1.546-11.146,2.642-5.6,1.611-10.05-.451-12.95-5.541-3.415-5.8-7.345-11.339-10.888-17.073C14.391,66.057,9.3,57.423,4.147,48.854c-1.16-1.933-2.964-3.543-3.8-5.54-1.611-4.123,2.706-9.084,6.829-7.667,8.053,2.706,16.3,2.577,24.547,2.126,5.863-.322,11.661-1.74,17.46-2.77,6.378-1.1,12.757-2.384,19.135-3.544,9.213-1.675,18.362-3.414,27.575-5.089,7.28-1.289,14.561-2.513,21.841-3.93,9.342-1.868,18.555-3.995,27.9-5.734,5.734-1.1,11.533-1.74,17.267-2.642,7.409-1.224,14.819-2.706,22.227-3.8,5.284-.837,10.631-1.288,15.978-2,6.958-1.03,13.916-2.319,20.874-3.157,8.569-1.1,17.2-1.8,25.771-2.642,7.6-.709,15.205-1.417,22.808-1.868,3.8-.257,7.6-.064,11.4-.064a11.942,11.942,0,0,0,3.221-.515c3.092.064,6.056.451,8.955.451,3.35,0,6.7-.58,9.987-.451,4.445.194,8.955.644,13.4,1.16,6.636.774,13.336,1.418,19.908,2.642,5.283,1.031,7.474,5.54,7.023,10.953-.386,3.737.258,7.538.516,11.339.387,4.446.838,8.891,1.288,13.336.194,1.8.387,3.673.645,5.477.386,2.448-1.482,3.93-3.995,3.543-3.479-.515-7.023-.709-10.567-.9-6.507-.257-13.078-.451-19.586-.644-6.7-.193-13.4-.837-20.037-.515-9.084.387-18.1,1.611-27.188,2.448-3.672.322-7.344.258-11.017.709-5.863.709-11.726,1.74-17.588,2.512-5.541.709-11.081,1.16-16.558,1.933-6.894.967-13.723,2.126-20.616,3.222a9.122,9.122,0,0,0-1.546.837c.644.387,1.288,1.1,1.868,1.031,3.415-.322,6.829-.773,10.244-1.224,4.316-.644,8.633-1.353,13.014-1.933,7.281-.9,14.561-1.74,21.841-2.577a25.646,25.646,0,0,1,4.446.064c.451,0,.837.58,1.224.9a10.04,10.04,0,0,1-1.482.387c-6.829.837-13.723,1.546-20.488,2.512S215.4,59.485,208.7,60.387c-3.092.451-6.314.322-9.406.709-6.636.837-13.272,1.482-19.779,2.9-4.7,1.03-9.149,3.157-13.723,4.832-3.092,1.16-4.574,3.608-3.737,6.571,1.353,4.574-.451,8.633-1.224,12.885-1.224,7.281-2.706,14.561-3.995,21.841-1.546,8.5-3.028,17.009-4.51,25.513-1.546,8.956-2.964,17.847-4.51,26.8-1.288,7.216-2.706,14.367-3.8,21.584-.709,4.059-.9,8.247-1.353,12.37-.322,2.512-1.1,4.961-1.224,7.474-.129,2.061.644,4.188.516,6.185-.516,10.824-1.16,21.584-1.868,32.407-.322,4.574-1.224,9.149-1.16,13.723,0,3.286,1.16,6.571,1.8,9.857.129.644.644,1.353.58,2-.322,4.961-.967,9.987-1.16,15.012-.322,6.7-1.353,13.53,2.319,19.715,1.031,1.675,2.706,2.964,3.8,4.574a22.441,22.441,0,0,1,1.482,4.123c-1.288.322-2.577.709-3.866.9-3.865.387-7.731.837-11.6.967a53.219,53.219,0,0,1-7.8-.773c-1.417-.193-2.835-.837-4.123-.709-2.771.387-5.541,1.675-8.247,1.675C109.679,313.522,107.295,312.234,104.911,311.654ZM321.13,15.674c-.129-.064-.257-.193-.387-.257C320.743,15.61,320.808,15.8,321.13,15.674Zm5.154-4.51a24.037,24.037,0,0,0,2.255-1.03,2.484,2.484,0,0,1-.967-.9,1.786,1.786,0,0,1-.58-.064,1.355,1.355,0,0,1,.58.709,2.44,2.44,0,0,1-1.288.644,1.785,1.785,0,0,1-.58-.064A1.355,1.355,0,0,1,326.284,11.164Zm-2.771,285.864c-3.672-2.577-7.28-5.218-10.888-7.86-5.476-3.93-10.823-7.989-16.493-11.661-2.319-1.482-2.512-3.543-2-5.541,3.029-11.726,5.928-23.516,11.275-34.6,3.672-7.538,6.12-15.721,9.278-23.516,3.028-7.345,6.185-14.625,9.278-21.905,4.639-10.888,9.02-21.9,13.981-32.6,5.347-11.4,11.275-22.614,17.073-33.824a170.866,170.866,0,0,1,8.7-15.334c2.835-4.316,6.829-7.8,9.471-12.177,4.574-7.538,9.406-14.754,15.913-20.81,1.289-1.16,2.835-2.061,4.123-3.221a34.017,34.017,0,0,0,3.286-3.543c3.608-4.639,7.151-9.278,10.76-13.916a4.424,4.424,0,0,1,1.353-1.031c0,.709.322,1.611,0,2.126-1.74,2.964-3.543,5.8-5.412,8.7-1.675,2.577-3.35,5.025-4.961,7.6-.064.129.387.709.451.644,1.288-.515,2.835-.838,3.737-1.74,3.222-3.673,6.378-7.409,9.342-11.275,1.74-2.319,2.835-5.154,4.768-7.344,3.672-4.188,7.667-8.053,11.533-12.112,1.8-1.933,3.35-4.059,5.283-5.863,8.311-7.925,17.266-15.076,27.7-20.037,2.513-1.16,5.154-2.126,7.667-3.221.515-.194.837-.709,1.224-1.031a9.331,9.331,0,0,0-1.675-.451c-3.673.387-7.409.9-11.081,1.288a14.508,14.508,0,0,1-1.418-.322,13.532,13.532,0,0,1,1.353-.709c3.414-1.16,6.12-3.48,9.02-5.541,4.317-2.964,9.729-1.224,13.723.967,8.054,4.509,13.723,11.79,19.908,18.619,6.572,7.216,10.824,15.913,17.009,23.387,4.7,5.734,8.312,12.435,12.435,18.619,3.672,5.477,2.835,11.275,1.546,17.2-.838,3.995-1.16,8.053-2.255,11.919-1.289,4.51-3.157,8.827-4.832,13.143-.257.773-.58,1.482-.9,2.255-2.384,5.734-5.026,11.468-7.023,17.331-2.062,6.25-3.093,12.885-5.348,19.071a122.791,122.791,0,0,0-6.443,23.451c-.966,5.734-3.672,11.21-4.961,16.88a161.824,161.824,0,0,0-2.577,17.653c-.837,7.474-2,15.076-1.868,22.55.194,8.375,1.546,16.686,2.448,25.062.387,3.479.774,6.958,1.353,10.373.193,1.288.966,2.384,1.288,3.672a25.44,25.44,0,0,1,.451,3.866c-1.418-.194-3.029.064-4.123-.644-3.157-1.933-6.121-4.381-9.213-6.443-1.933-1.288-3.866-2.834-5.992-3.35-6.571-1.74-8.375-7.474-9.986-12.5a96.048,96.048,0,0,1-4.768-30.281c.064-8.247-.387-16.558-.58-24.869-.064-3.028-.773-3.35-3.543-2.319-7.925,3.157-15.85,6.25-23.967,8.955-2.449.9-5.348.515-8.053.773-3.8.387-7.6,1.353-11.4,1.16-4.832-.194-9.6-1.353-13.336-5.026-3.608-3.543-7.345-6.894-10.953-10.437-2.191-2.126-3.672-1.417-5.09.773-3.995,6.185-7.8,12.5-11.983,18.555-3.415,5.026-7.281,9.858-10.888,14.754-.773,1.1-1.224,2.319-1.933,3.415-2.126,3.286-4.381,6.507-6.314,9.922a56.324,56.324,0,0,0-2.642,6.443c-.257.58-.515,1.1-.773,1.675,0-.515.064-1.1.064-1.611a12.906,12.906,0,0,1,.129-2.126,2.4,2.4,0,0,0,.257-.709l-.386.58c-1.16-1.868-2.062-.515-2.513.387-3.479,6.7-7.216,13.336-9.986,20.359-3.672,9.213-9.535,17.524-11.081,27.575-.386,2.512-1.1,4.961-1.546,7.409-.4,2.492-1.306,3.73-2.758,3.731A6.085,6.085,0,0,1,323.513,297.029Zm166.416-44.906c.258.322.451.644.709.967.064,0,.322-.194.516-.258a4.225,4.225,0,0,1-1.224-1.353,1.785,1.785,0,0,1-.58-.064A1.353,1.353,0,0,1,489.929,252.123Zm0-1.933c-.129-.064-.257-.194-.387-.258C489.543,250.126,489.608,250.319,489.929,250.19ZM481.747,69.471a9.653,9.653,0,0,0-3.028,1.224c-5.09,4.123-10.437,7.989-15.012,12.628-6.571,6.7-12.434,14.109-18.748,21.068-9.278,10.309-16.558,22.034-24.289,33.438-4.832,6.958-9.471,14.045-14.11,21.2a5.313,5.313,0,0,0-.257,3.35c.064.322,1.611.387,2.448.515,10.309,1.224,20.037-2.319,29.959-4.059,8.5-1.546,16.816-3.866,25.513-4.446a9.232,9.232,0,0,0,5.54-2.834c.967-1.1.58-3.35,1.16-5.412.194-1.546.387-3.028.709-4.574.9-4.961,1.933-9.922,2.835-14.882,1.159-6.765,2.126-13.465,3.285-20.23,1.224-7.023,2.577-13.981,3.8-20.939.773-4.7,1.288-9.342,1.933-14.046.11-1.046.126-2.093-1.039-2.093A3.022,3.022,0,0,0,481.747,69.471ZM462.483,19.862a109.369,109.369,0,0,0-10.115,4.446c-10.308,5.477-18.426,13.723-26.415,21.97-3.93,4.059-7.216,8.762-11.081,13.53l-.58,1.353c.58,0,1.417.257,1.74,0,2.19-2.062,4.188-4.253,6.378-6.314,7.28-6.894,14.561-13.916,22.034-20.617a88.307,88.307,0,0,1,10.179-7.28c2.835-1.869,5.863-3.479,8.7-5.347.644-.451.9-1.418,1.353-2.191A10.975,10.975,0,0,0,462.483,19.862Z" transform="translate(0 0)" fill="#fff"/>
</svg>
